<svg width="232" height="211" viewBox="0 0 232 211" fill="none" xmlns="http://www.w3.org/2000/svg">
<path fill-rule="evenodd" clip-rule="evenodd" d="M183.266 67.0317C171.249 41.9608 146.198 24.6826 112.781 24.6826C65.0561 24.6826 35.2891 59.9226 35.2891 102.774C35.2891 130.131 47.015 154.189 67.9889 168.135C69.184 167.24 69.9038 166.66 69.9038 166.66C80.3653 159.834 90.5708 152.649 100.503 145.119C81.7913 139.612 72.3421 121.708 72.3421 102.774C72.3421 80.2919 86.3453 58.4057 113.052 58.4057C136.57 58.4057 151.958 77.9018 153.613 98.9942C163.922 88.7627 173.816 78.1007 183.266 67.0317ZM109.295 180.794C138.89 159.817 166.253 135.855 190.938 109.304C188.113 149.395 159.219 180.865 113.079 180.865C111.804 180.865 110.543 180.841 109.295 180.794Z" fill="#8DD3BB"/>
<path d="M213.484 3.69027C175.618 -10.2324 148.397 19.7257 148.397 19.7257L174.21 34.7318C183.88 29.179 188.186 34.5693 189.297 37.5217C190.082 39.6074 189.026 41.8827 188.186 43.1287L181.902 51.0651C147.991 91.9663 108.121 127.504 63.6196 156.541C63.6196 156.541 50.1852 167.376 43.0346 167.539C37.0216 167.674 34.3401 162.609 39.4051 155.349L26.9458 127.233C26.9458 127.233 -5.47563 148.469 0.808218 185.795C3.4626 201.56 18.2784 212.774 34.0151 209.929C42.0595 208.494 51.9999 204.566 64.1613 196.521L86.534 181.895C131.036 152.803 170.933 117.157 204.817 76.2017L212.509 66.9109C224.102 53.7197 229.302 42.8578 231.063 34.2713C233.771 21.1342 225.998 8.29503 213.484 3.69027Z" fill="#8DD3BB"/>
</svg>
